<svg xmlns="http://www.w3.org/2000/svg" width="325.501" height="144.021"><path d="M272.79 118.098c-14.832-2.967-34.31-3.753-42.533-3.753l-195.74.04c-12.18 0-24.774 0-31.236-9.953-6.554-10.1-2.992-20.038 8.063-39.923C12.166 63.032 45.693 0 45.693 0s3.426 4.256 6.877 6.964c3.41 2.672 6.915 4.096 16.256 4.096 16.59 0 123.613-.233 124.705-.238 21.724 0 43.67 2.246 57.888 17.842 7.383.787 31.21 3.935 50.845 13.327 11.494 5.492 19.075 13.694 21.94 23.71.865 3.03 1.298 6.213 1.298 9.517 0 9.506-3.562 20.038-10.54 30.983-14.747 23.13-28.35 31.214-28.96 31.65-8.378 5.894-16.494 6.17-16.494 6.17s7.308-8.312 9.776-16.627c2.467-8.31-6.49-9.295-6.49-9.295z" fill="#fff"/><path d="M299.845 47.06c-22.386-10.702-51.14-13.017-51.14-13.017C236.16 18.713 214.96 16.44 193.53 16.44c0 0-107.916.237-124.704.237-19.54 0-21.504-7.75-21.504-7.75L21.128 57.974h68.025c21.408 0 22.482-2.144 36.682-12.587 15.082-11.096 27.12-15.11 41.372-15.11 14.245 0 23.675 3.21 39.53 10.238 15.86 7.02 24.288 10.435 33.725 6.42 0 0-7.427 10.034-29.907.6-22.476-9.43-28.492-11.437-42.147-11.437-13.466 0-28.89 6.46-48.2 25.732L143.22 80.35s-5.324 8.225-8.83 13.478c-3.494 5.25-3.168 8.758-1.303 11.32 1.87 2.572 4.222 3.734 12.74 3.734 8.52 0 76.792-.155 84.43-.155 6.643 0 27.415.62 43.632 3.858 21.533 4.307 7.642 22.468 7.642 22.468s14.42-9.493 28.695-31.872c15.92-24.966 11.996-45.417-10.382-56.12z" fill="#00295e"/><path d="M260.295 51.083c-10.18-2.436-1.475-8.333-1.475-8.333-14.65 2.96-20.103 14.91-21.36 18.254-.235.453-.478.916-.724 1.408-8.105 16.31-15.406 15.438-29.246 15.438h-23.703c-19.2 0-28.14 9.513-37.344 25.72h10.844c9.91-14.757 17.392-18.736 36.99-19.84 44.792.025 80.497 12.876 99.366 22.695C320.478 61.36 280.65 53.9 260.295 51.083z" fill="#fff"/><path d="M176.93 103.394c5.008-7.57 15.195-10.143 31.617-9.198 40.525 2.348 63.825 10.24 81.93 16.985-22.325-13.068-62.105-22.486-89.754-22.398-13.514.042-25.314 2.403-32.247 14.612h8.455zM220.424 58.69c-5.28 7.368-12.238 9.884-31.967 8.535-22.953-1.56-17.03-11.23-14.358-15.99 0 0-.058 0-.08-.01.73-1.345 1.984-3.634 3.25-5.935-17.588-1.087-30.432 12.452-30.432 12.452 13.11 12.97 21.856 14.324 33.718 14.324h22.175c20.62 0 25.6-9.278 27.49-13.403-3.557.446-6.762.41-9.796.026z" fill="#fff"/><path d="M210.416 56.494l-1.287-.523c-2.023 2.13-5.51 3.367-8.89 2.932-4.447-.57-7.01-3.8-5.746-7.21.182-.5.446-.97.76-1.42-2.277-.892-4.568-1.75-6.8-2.528-4.566 7.388-7.244 12.286 8.608 13.622 9.874.844 12.553-.85 14.627-4.396-.425-.16-.84-.3-1.274-.476z" fill="#4dbd38"/><path d="M130.798 84.57c-8.178 14.195-11.425 17.457-5.68 24.193H34.516c-13.364 0-22.05-.505-26.52-7.394-4.347-6.69-3.452-13.072 8.26-34.132H93.29c13.263 0 16.673.756 23.87 6.342 7.197 5.59 13.638 10.99 13.638 10.99z" fill="#b2b7bb"/></svg>

<svg xmlns="http://www.w3.org/2000/svg" width="325.50064" height="144.02084">
  <g inkscape:label="Layer 1" inkscape:groupmode="layer" id="layer1" transform="translate(-212.24968,-460.35175)">
    <g id="g5932" transform="matrix(1.25,0,0,1.25,-93.750001,-133.09055)">
      <path class="outline" d="m 463.0329,569.23257 c -11.86707,-2.37366 -27.44813,-3.00294 -34.02772,-3.00294 l -156.59301,0.033 c -9.74244,0 -19.81813,0 -24.9878,-7.96326 -5.24414,-8.07922 -2.39442,-16.03027 6.44958,-31.93848 0.65858,-1.18041 27.48108,-51.60705 27.48108,-51.60705 0,0 2.73987,3.40515 5.5011,5.57129 2.72705,2.13745 5.53162,3.27636 13.00415,3.27636 13.27149,0 98.89039,-0.18615 99.76442,-0.19042 17.37853,0 34.93468,1.79748 46.3092,14.27367 5.90698,0.62989 24.96887,3.1482 40.67626,10.66224 9.19556,4.3927 15.26001,10.95398 17.5525,18.96668 0.69152,2.4237 1.0376,4.9707 1.0376,7.61352 0,7.60498 -2.84974,16.03028 -8.43324,24.78699 -11.79687,18.50281 -22.67882,24.9707 -23.16711,25.3186 -6.70226,4.71618 -13.19519,4.93775 -13.19519,4.93775 0,0 5.84656,-6.65039 7.82044,-13.30262 1.97387,-6.64794 -5.19226,-7.43529 -5.19226,-7.43529 z" inkscape:connector-curvature="0"/>
      <path class="head-blue" d="M 484.67596,512.40212 C 466.76702,503.8401 443.76348,501.9883 443.76348,501.9883 433.72686,489.72389 416.76702,487.90504 399.6247,487.90504 c 0,0 -86.33363,0.19044 -99.76442,0.19044 -15.63233,0 -17.20275,-6.20056 -17.20275,-6.20056 l -20.9552,39.23888 c 0,0 37.29614,0 54.42016,0 17.12585,0 17.98523,-1.71508 29.34509,-10.06957 12.06604,-8.87695 21.69678,-12.0868 33.09815,-12.0868 11.39527,0 18.93982,2.56775 31.62354,8.18909 12.6892,5.61646 19.43054,8.3484 26.97998,5.13611 0,0 -5.94178,8.02735 -23.92518,0.48035 -17.98095,-7.54456 -22.79419,-9.14979 -33.71765,-9.14979 -10.77331,0 -23.11279,5.16908 -38.5614,20.58655 l 18.41186,14.81445 c 0,0 -4.26025,6.5796 -7.0642,10.78186 -2.79602,4.20044 -2.5354,7.00684 -1.0437,9.05702 1.49535,2.05688 3.37768,2.98645 10.19348,2.98645 6.81396,0 61.4325,-0.12388 67.54272,-0.12388 5.31434,0 21.93238,0.49499 34.90602,3.08594 17.22716,3.44604 6.11388,17.97485 6.11388,17.97485 0,0 11.53564,-7.5946 22.95593,-25.49744 12.73682,-19.97375 9.59717,-36.33484 -8.30505,-44.89685 z" inkscape:connector-curvature="0"/>
      <path class="upper-lip" d="m 453.03595,515.6205 c -8.14393,-1.94885 -1.18043,-6.66687 -1.18043,-6.66687 -11.72057,2.36939 -16.08215,11.92932 -17.08861,14.60327 -0.18678,0.36255 -0.38148,0.73303 -0.57801,1.12672 -6.48438,13.04809 -12.32483,12.34985 -23.39722,12.34985 -4.50866,0 -11.27502,0 -18.9624,0 -15.3595,0 -22.51282,7.61109 -29.87548,20.57617 l 8.67553,0 c 7.92785,-11.80542 13.91358,-14.98841 29.59168,-15.87281 35.83374,0.0207 64.39819,10.30153 79.4928,18.15735 21.4685,-36.05164 -10.39308,-42.02026 -26.67786,-44.27367 z" inkscape:connector-curvature="0"/>
      <path id="path3588" class="bottom-lip" d="m 386.34466,557.46864 c 4.00574,-6.05529 12.15515,-8.11401 25.29236,-7.3584 32.42065,1.87866 51.06018,8.19154 65.54383,13.58826 -17.8595,-10.45471 -49.68384,-17.9895 -71.80298,-17.9187 -10.81116,0.033 -20.25086,1.922 -25.79712,11.68884 l 6.76391,0 z" inkscape:connector-curvature="0"/>
      <path class="eye-white" d="m 421.13897,521.70509 c -4.22485,5.89478 -9.79004,7.90773 -25.57372,6.82862 -18.36243,-1.24694 -13.62367,-8.98438 -11.48622,-12.79297 0,0 -0.0457,0 -0.0623,-0.006 0.5841,-1.07727 1.5863,-2.90772 2.59949,-4.74915 -14.07105,-0.86975 -24.3457,9.96155 -24.3457,9.96155 10.48766,10.37659 17.48413,11.45935 26.97388,11.45935 3.29895,0 7.98583,0 17.74047,0 16.49414,0 20.47913,-7.42249 21.99096,-10.72205 -2.84545,0.35645 -5.40953,0.32777 -7.83691,0.0208 z" inkscape:connector-curvature="0"/>
      <path class="eye-green" style="fill:#4dbd38;fill-opacity:1;fill-rule:nonzero;stroke:none" d="m 413.13238,519.94912 c -0.3357,-0.13673 -0.6836,-0.27772 -1.02966,-0.41809 -1.61744,1.70226 -4.40735,2.69225 -7.10999,2.34435 -3.55835,-0.45593 -5.60852,-3.04076 -4.59777,-5.76843 0.14526,-0.39917 0.35644,-0.77637 0.60912,-1.13465 -1.82251,-0.71471 -3.65538,-1.40197 -5.44067,-2.02331 -3.65356,5.91065 -5.79529,9.8291 6.88599,10.89783 7.89917,0.67505 10.04272,-0.67932 11.70166,-3.51684 -0.33935,-0.12818 -0.67078,-0.23988 -1.01868,-0.38086 z" inkscape:connector-curvature="0"/>
      <path style="fill:#b2b7bb;fill-opacity:1;fill-rule:nonzero;stroke:none" d="m 349.43792,542.41005 c -6.54235,11.35559 -9.1394,13.96545 -4.54406,19.35425 0,0 -59.25966,0 -72.48169,0 -10.69093,0 -17.63978,-0.40406 -21.21644,-5.91492 -3.47718,-5.35156 -2.76061,-10.45715 6.60889,-27.3053 0,0 51.02112,0 61.6272,0 10.61035,0 13.33801,0.60486 19.09546,5.07386 5.75805,4.47204 10.91064,8.79211 10.91064,8.79211 z" inkscape:connector-curvature="0"/>
    </g>
  </g>
</svg>